<svg width="30" height="30" xmlns="http://www.w3.org/2000/svg">

 <g>
  <title>background</title>
  <rect fill="none" id="canvas_background" height="402" width="582" y="-1" x="-1"/>
 </g>
 <g>
  <title>Layer 1</title>
  <path fill="#ec5254" id="svg_1" d="m16.758,21.401c0,0 4.496,4.496 4.819,4.819c1.04,1.04 2.725,1.04 3.764,0c1.04,-1.04 1.04,-2.725 0,-3.765c-0.323,-0.323 -4.819,-4.819 -4.819,-4.819l-3.764,3.765z"/>
  <path fill="#ec5254" id="svg_2" d="m23.961606,11.003l-3.201,-0.8l-0.8,-3.201l3.706,-3.706c-2.129,-0.677 -4.551,-0.176 -6.24,1.512c-2.41,2.41 -1.639,5.547 0.772,7.957c2.41,2.41 5.547,3.182 7.957,0.771c1.689,-1.689 2.19,-4.111 1.512,-6.239l-3.706,3.706z"/>
  <polygon fill="#ec5254" id="svg_3" points="12.46360645070672,11.46360645070672 8.96360645070672,7.96360645070672 7.96360645070672,4.96360645070672 3.9636064507067204,2.9636064507067204 1.9636064507067204,4.96360645070672 3.9636064507067204,8.96360645070672 6.96360645070672,9.96360645070672 10.46360645070672,13.46360645070672 "/>
  <path fill="#ec5254" id="svg_4" d="m17.879,8.879c-3.364,3.364 -12.636,12.636 -13,13c-1.172,1.172 -1.172,3.071 0,4.243c1.172,1.172 3.071,1.172 4.243,0c0.364,-0.364 9.636,-9.636 13,-13l-4.243,-4.243zm-10.879,16.121c-0.552,0 -1,-0.448 -1,-1c0,-0.552 0.448,-1 1,-1s1,0.448 1,1c0,0.552 -0.448,1 -1,1z"/>
 </g>
</svg>