<svg width="24" height="24" xmlns="http://www.w3.org/2000/svg">

 <g>
  <title>background</title>
  <rect fill="none" id="canvas_background" height="402" width="582" y="-1" x="-1"/>
 </g>
 <g>
  <title>Layer 1</title>
  <path fill="#ec5254" id="svg_1" d="m9,13c-2.8,0 -5,2.2 -5,5s2.2,5 5,5s5,-2.2 5,-5s-2.2,-5 -5,-5zm0,8c-1.7,0 -3,-1.3 -3,-3s1.3,-3 3,-3c1.7,0 3,1.3 3,3s-1.3,3 -3,3zm7.7,-10.6l1.4,1.4l5.8,-5.8l-5.8,-5.8l-1.4,1.4l3.3,3.4l-5,0c-3.9,0 -7,3 -7,7l2,0c0,-3 2.2,-5 5,-5l5.2,0l-3.5,3.4zm-10.4,-2.7l1.4,-1.4l-2.3,-2.3l2.3,-2.3l-1.4,-1.4l-2.3,2.3l-2.3,-2.3l-1.4,1.4l2.3,2.3l-2.3,2.3l1.4,1.4l2.3,-2.3l2.3,2.3zm16,8.6l-2.3,2.3l-2.3,-2.3l-1.4,1.4l2.3,2.3l-2.3,2.3l1.4,1.4l2.3,-2.3l2.3,2.3l1.4,-1.4l-2.3,-2.3l2.3,-2.3l-1.4,-1.4z" class="st0"/>
 </g>
</svg>