<?xml version="1.0" encoding="UTF-8"?>
<svg width="47px" height="185px" viewBox="0 0 47 185" version="1.1" xmlns="http://www.w3.org/2000/svg" xmlns:xlink="http://www.w3.org/1999/xlink">
    <!-- Generator: Sketch 47.1 (45422) - http://www.bohemiancoding.com/sketch -->
    <title>Layer 1</title>
    <desc>Created with Sketch.</desc>
    <defs></defs>
    <g id="Page-1" stroke="none" stroke-width="1" fill="none" fill-rule="evenodd">
        <g id="Services-Page" transform="translate(-414.000000, -685.000000)" fill-rule="nonzero">
            <g id="Group" transform="translate(274.000000, 578.000000)">
                <g id="Services_Design" transform="translate(140.000000, 107.000000)">
                    <g id="Layer-1">
                        <path d="M0.0975436508,0 L0.0975436508,185 L46.9024563,185 L46.9024563,0 L0.0975436508,0 Z M42.6601911,180.795455 L4.33980892,180.795455 L4.33980892,172.949773 L8.29784241,172.949773 L8.29784241,168.745227 L4.33980892,168.745227 L4.33980892,160.895341 L8.29784241,160.895341 L8.29784241,156.690795 L4.33980892,156.690795 L4.33980892,148.845114 L14.3791297,148.845114 L14.3791297,144.640568 L4.33980892,144.640568 L4.33980892,136.790682 L8.29784241,136.790682 L8.29784241,132.586136 L4.33980892,132.586136 L4.33980892,124.740455 L8.29784241,124.740455 L8.29784241,120.535909 L4.33980892,120.535909 L4.33980892,112.690227 L14.3791297,112.690227 L14.3791297,108.485682 L4.33980892,108.485682 L4.33980892,100.635795 L8.29784241,100.635795 L8.29784241,96.43125 L4.33980892,96.43125 L4.33980892,88.5834659 L8.29784241,88.5834659 L8.29784241,84.3789205 L4.33980892,84.3789205 L4.33980892,76.5227273 L14.3791297,76.5227273 L14.3791297,72.3181818 L4.33980892,72.3181818 L4.33980892,64.4703977 L8.29784241,64.4703977 L8.29784241,60.2658523 L4.33980892,60.2658523 L4.33980892,52.4180682 L8.29784241,52.4180682 L8.29784241,48.2135227 L4.33980892,48.2135227 L4.33980892,40.3657386 L14.3791297,40.3657386 L14.3791297,36.1611932 L4.33980892,36.1611932 L4.33980892,28.3113068 L8.29784241,28.3113068 L8.29784241,24.1067614 L4.33980892,24.1067614 L4.33980892,16.2589773 L8.29784241,16.2589773 L8.29784241,12.0544318 L4.33980892,12.0544318 L4.33980892,4.20454545 L42.6601911,4.20454545 L42.6601911,180.795455 L42.6601911,180.795455 Z" id="svg_2" fill="#EC5254"></path>
                        <path d="M30.5930675,20.7746591 C34.2774749,20.7746591 37.2746353,17.8041477 37.2746353,14.1525 C37.2746353,10.5008523 34.2774749,7.53034091 30.5930675,7.53034091 C26.9086601,7.53034091 23.9114997,10.5008523 23.9114997,14.1525 C23.9114997,17.8041477 26.906539,20.7746591 30.5930675,20.7746591 Z M30.5930675,11.7348864 C31.9399868,11.7348864 33.0323701,12.8196591 33.0323701,14.1525 C33.0323701,15.4853409 31.9378656,16.5701136 30.5930675,16.5701136 C29.2482694,16.5701136 28.153765,15.4853409 28.153765,14.1525 C28.153765,12.8196591 29.2461483,11.7348864 30.5930675,11.7348864 Z" id="svg_3" fill="#000000"></path>
                    </g>
                </g>
            </g>
        </g>
    </g>
</svg>