<?xml version="1.0" encoding="UTF-8"?>
<svg width="111px" height="109px" viewBox="0 0 111 109" version="1.1" xmlns="http://www.w3.org/2000/svg" xmlns:xlink="http://www.w3.org/1999/xlink">
    <!-- Generator: Sketch 47.1 (45422) - http://www.bohemiancoding.com/sketch -->
    <title>Services_ecommerce</title>
    <desc>Created with Sketch.</desc>
    <defs></defs>
    <g id="Page-1" stroke="none" stroke-width="1" fill="none" fill-rule="evenodd">
        <g id="Services-Page" transform="translate(-965.000000, -697.000000)" fill-rule="nonzero" fill="#EC5254">
            <g id="Group" transform="translate(274.000000, 578.000000)">
                <g id="Services_ecommerce" transform="translate(691.000000, 119.000000)">
                    <g id="Layer-1">
                        <path d="M107.55878,0.0832545455 L94.5466543,0.0832545455 C94.4237339,0.0832545455 94.3192584,0.1487 94.1996875,0.163022727 C93.9501761,0.192086364 93.7169072,0.239288636 93.4830419,0.327995455 C93.2873053,0.4017 93.1105642,0.492602273 92.9321714,0.603002273 C92.726937,0.730286364 92.5417994,0.868443182 92.3628559,1.04042045 C92.198182,1.19802273 92.0584226,1.36587045 91.9223338,1.55504545 C91.7820238,1.74997045 91.6621776,1.94845 91.555775,2.17432045 C91.4457019,2.40625455 91.3683891,2.64425227 91.3008953,2.90143409 C91.2642349,3.04084545 91.184995,3.15281364 91.1614571,3.29928182 L89.1907391,15.5695205 L4.97861979,21.1761364 C4.65597098,21.1506273 4.37145089,21.2042068 4.01076513,21.2425227 C2.14002604,21.4364545 0.751011905,23.3048386 0.889899554,25.4386114 C0.90109499,25.5994023 0.919035218,25.7551227 0.945922619,25.9082295 L6.81347842,62.3664182 C8.15546255,68.019975 12.2889645,73.7270591 18.5060107,73.7270591 L79.8495238,73.7270591 L78.5360789,81.9049182 L26.9186012,81.9049182 C20.3834487,81.9049182 15.0647904,87.9642682 15.0647904,95.409525 C15.0647904,102.857395 20.3834487,108.916745 26.9186012,108.916745 C33.4537537,108.916745 38.7724578,102.857395 38.7724578,95.409525 C38.7724578,93.3807159 38.3493254,91.4740682 37.6424529,89.7458273 L69.3387525,89.7458273 C68.6319258,91.4740682 68.2087934,93.3807159 68.2087934,95.409525 C68.2087934,102.857395 73.5274516,108.916745 80.0626042,108.916745 C86.5977567,108.916745 91.9164608,102.857395 91.9164608,95.409525 C91.9164608,90.1156045 89.2028063,85.5691318 85.299499,83.3565841 L97.4152096,7.92416364 L107.55878,7.92416364 C109.458609,7.92416364 111,6.16816591 111,4.00370909 C111,1.83925227 109.458609,0.0832545455 107.55878,0.0832545455 L107.55878,0.0832545455 Z M83.5715935,50.5524159 L68.9889869,50.8134136 L69.7832205,41.1851955 L85.1606114,40.6600636 L83.5715935,50.5524159 L83.5715935,50.5524159 Z M10.7195846,43.2025568 L25.2918217,42.7048159 L26.2451314,51.57785 L12.1060751,51.83085 L10.7195846,43.2025568 Z M29.8952567,42.5475273 L45.912531,42.0007023 L45.912531,51.22595 L30.8569172,51.4955205 L29.8952567,42.5475273 L29.8952567,42.5475273 Z M45.912531,36.7686205 L29.3351637,37.3349432 L28.276002,27.4795477 L45.912531,26.3048227 L45.912531,36.7686205 Z M50.5008247,25.9991841 L66.5150707,24.9322977 L65.594246,36.0963932 L50.5008247,36.6119591 L50.5008247,25.9991841 Z M45.912531,56.4544773 L45.912531,65.88615 L32.4033557,65.88615 L31.4175608,56.7138545 L45.912531,56.4544773 Z M50.5008247,56.3725136 L63.9417262,56.1322682 L63.137123,65.88615 L50.5008247,65.88615 L50.5008247,56.3725136 L50.5008247,56.3725136 Z M50.5008247,51.1439341 L50.5008247,41.8440409 L65.1615699,41.3431114 L64.3735305,50.8957432 L50.5008247,51.1439341 L50.5008247,51.1439341 Z M86.0054998,35.3992841 L70.2158966,35.9384773 L71.1490179,24.6237841 L87.9156982,23.5067682 L86.0054998,35.3992841 Z M23.6882589,27.7851864 L24.7314534,37.4919182 L9.88309276,37.9991727 C9.25743304,34.1266 8.75923611,31.1169977 8.3346813,28.8077455 L23.6882589,27.7851864 Z M13.5211508,60.6384909 L12.943714,57.0444273 L26.8060503,56.7964977 L27.7828522,65.88615 L18.5060107,65.88615 C15.5576649,65.88615 13.9154688,62.2464523 13.5211508,60.6384909 Z M67.7458805,65.88615 L68.5571825,56.049625 L82.729504,55.7959455 L81.1088728,65.88615 L67.7458805,65.88615 L67.7458805,65.88615 Z M31.8900174,95.409525 C31.8900174,98.5336568 29.6608408,101.075836 26.9186012,101.075836 C24.1763616,101.075836 21.9472309,98.5336568 21.9472309,95.409525 C21.9472309,92.2853932 24.1764075,89.7458273 26.9186012,89.7458273 C29.6607949,89.7458273 31.8900174,92.2854455 31.8900174,95.409525 Z M80.0626042,101.075836 C77.3204105,101.075836 75.0912339,98.5336568 75.0912339,95.409525 C75.0912339,92.2853932 77.3204105,89.7458273 80.0626042,89.7458273 C82.8047979,89.7458273 85.0340203,92.2854455 85.0340203,95.409525 C85.0340203,98.5336045 82.8048438,101.075836 80.0626042,101.075836 Z" id="svg_1"></path>
                    </g>
                </g>
            </g>
        </g>
    </g>
</svg>